<?xml version="1.0" encoding="utf-8"?>
<!-- Generator: Adobe Illustrator 16.0.0, SVG Export Plug-In . SVG Version: 6.00 Build 0)  -->
<!DOCTYPE svg PUBLIC "-//W3C//DTD SVG 1.1//EN" "http://www.w3.org/Graphics/SVG/1.1/DTD/svg11.dtd">
<svg version="1.1" id="Layer_1" xmlns="http://www.w3.org/2000/svg" xmlns:xlink="http://www.w3.org/1999/xlink" x="0px" y="0px"
	 width="128px" height="128px" viewBox="0 0 128 128" enable-background="new 0 0 128 128" xml:space="preserve">
<g>
	<g>
		<path d="M52,16c-19.883,0-36,16.117-36,36c0,19.875,16.117,36,36,36c19.883,0,36-16.125,36-36C88,32.117,71.883,16,52,16z M52,80
			c-15.438,0-28-12.563-28-28s12.563-28,28-28c15.438,0,28,12.563,28,28S67.438,80,52,80z M123.316,100.688L98.273,75.648
			C101.91,68.547,104,60.523,104,52c0-28.727-23.281-52-52-52C23.285,0,0,23.273,0,52s23.285,52,52,52
			c8.523,0,16.547-2.094,23.649-5.727l25.039,25.039C103.813,126.438,107.906,128,112,128s8.188-1.563,11.316-4.688
			C129.563,117.07,129.563,106.938,123.316,100.688z M117.66,117.656c-1.512,1.508-3.523,2.344-5.66,2.344s-4.148-0.828-5.656-2.344
			L81.305,92.617L77.188,88.5l-5.184,2.648C65.715,94.367,58.984,96,52,96C27.738,96,8,76.266,8,52S27.738,8,52,8
			c24.262,0,44,19.734,44,44c0,6.992-1.633,13.719-4.848,20l-2.656,5.188l4.121,4.117l25.039,25.039
			c1.512,1.508,2.344,3.523,2.344,5.656C120,114.141,119.172,116.148,117.66,117.656z"/>
	</g>
</g>
</svg>
